<svg width="339" height="339" viewBox="0 0 339 339" fill="none" xmlns="http://www.w3.org/2000/svg">
<mask id="mask0_111_73" style="mask-type:alpha" maskUnits="userSpaceOnUse" x="3" y="0" width="334" height="339">
<path d="M255.484 68.6593C287.486 96.9866 323.516 124.645 333.363 162.117C342.986 199.366 326.649 246.43 294.647 283.01C262.645 319.367 215.426 345.24 176.486 336.988C137.323 328.958 106.664 286.578 75.3333 250.221C44.0027 213.641 12.0008 183.084 4.83948 145.165C-2.32179 107.247 14.91 61.9678 46.2406 33.8636C77.5712 5.53634 123 -5.83918 159.478 2.85974C195.956 11.5587 223.706 40.5551 255.484 68.6593Z" fill="#555555"/>
</mask>
<g mask="url(#mask0_111_73)">
<rect width="339" height="339" fill="#555555"/>
<path d="M34.5503 116.013H39.4722L48.7227 140.688L57.9512 116.013H62.873L50.6562 148.005H46.7451L34.5503 116.013ZM32.3091 116.013H36.9893L37.8022 137.37V148.005H32.3091V116.013ZM60.4341 116.013H65.1362V148.005H59.6211V137.37L60.4341 116.013ZM81.6377 148.444C79.8799 148.444 78.2905 148.159 76.8696 147.587C75.4634 147.001 74.2622 146.188 73.2661 145.148C72.2847 144.108 71.5303 142.885 71.0029 141.479C70.4756 140.073 70.2119 138.557 70.2119 136.931V136.052C70.2119 134.191 70.4829 132.507 71.0249 130.998C71.5669 129.489 72.3213 128.2 73.2881 127.131C74.2549 126.047 75.3975 125.219 76.7158 124.648C78.0342 124.077 79.4624 123.791 81.0005 123.791C82.6997 123.791 84.1865 124.077 85.4609 124.648C86.7354 125.219 87.79 126.025 88.625 127.065C89.4746 128.09 90.1045 129.313 90.5146 130.734C90.9395 132.155 91.1519 133.723 91.1519 135.436V137.7H72.7827V133.898H85.9224V133.481C85.8931 132.529 85.7026 131.635 85.3511 130.8C85.0142 129.965 84.4941 129.291 83.791 128.779C83.0879 128.266 82.1504 128.01 80.9785 128.01C80.0996 128.01 79.3159 128.2 78.6274 128.581C77.9536 128.947 77.3896 129.482 76.9355 130.185C76.4814 130.888 76.1299 131.738 75.8809 132.734C75.6465 133.715 75.5293 134.821 75.5293 136.052V136.931C75.5293 137.971 75.6685 138.937 75.9468 139.831C76.2397 140.71 76.6646 141.479 77.2212 142.138C77.7778 142.797 78.4517 143.317 79.2427 143.698C80.0337 144.064 80.9346 144.247 81.9453 144.247C83.2197 144.247 84.355 143.991 85.3511 143.478C86.3472 142.966 87.2114 142.241 87.9438 141.303L90.7344 144.006C90.2217 144.753 89.5552 145.471 88.7349 146.159C87.9146 146.833 86.9111 147.382 85.7246 147.807C84.5527 148.232 83.1904 148.444 81.6377 148.444ZM99.5894 124.23H104.885L104.621 132.602C104.548 135.034 104.27 137.121 103.786 138.864C103.303 140.607 102.673 142.079 101.896 143.281C101.12 144.467 100.241 145.441 99.2598 146.203C98.293 146.965 97.2749 147.565 96.2056 148.005H94.6455V143.83L95.3926 143.786C96.0225 143.112 96.5645 142.438 97.0186 141.765C97.4873 141.076 97.8828 140.322 98.2051 139.501C98.5273 138.666 98.7764 137.692 98.9521 136.579C99.1426 135.466 99.2671 134.14 99.3257 132.602L99.5894 124.23ZM100.996 124.23H116.069V148.005H110.795V128.713H100.996V124.23ZM93.437 143.786H119.321V155.08H114.025V148.005H98.7983V155.08H93.415L93.437 143.786Z" fill="#F8F8F8"/>
<path d="M176.352 185.965V190.359H161.476V217.957H155.983V185.965H176.352ZM159.806 198.248H167.848C170.28 198.248 172.36 198.658 174.089 199.478C175.817 200.284 177.135 201.419 178.044 202.884C178.952 204.349 179.406 206.055 179.406 208.004C179.406 209.468 179.15 210.809 178.637 212.025C178.124 213.24 177.37 214.295 176.374 215.189C175.378 216.067 174.162 216.749 172.726 217.232C171.305 217.715 169.679 217.957 167.848 217.957H155.983V185.965H161.52V213.585H167.848C169.24 213.585 170.383 213.328 171.276 212.816C172.17 212.288 172.829 211.6 173.254 210.75C173.693 209.9 173.913 208.97 173.913 207.96C173.913 206.978 173.693 206.085 173.254 205.279C172.829 204.473 172.17 203.829 171.276 203.345C170.383 202.862 169.24 202.62 167.848 202.62H159.806V198.248ZM190.744 215.364L197.204 194.183H202.873L193.337 221.583C193.117 222.169 192.831 222.806 192.48 223.494C192.128 224.183 191.667 224.835 191.095 225.45C190.539 226.08 189.843 226.585 189.008 226.966C188.173 227.361 187.162 227.559 185.976 227.559C185.507 227.559 185.053 227.515 184.614 227.427C184.189 227.354 183.786 227.274 183.405 227.186L183.383 223.143C183.53 223.157 183.705 223.172 183.91 223.187C184.13 223.201 184.306 223.209 184.438 223.209C185.317 223.209 186.049 223.099 186.635 222.879C187.221 222.674 187.697 222.337 188.063 221.868C188.444 221.4 188.766 220.77 189.03 219.979L190.744 215.364ZM187.096 194.183L192.743 211.981L193.688 217.562L190.019 218.506L181.384 194.183H187.096ZM211.618 194.183V217.957H206.323V194.183H211.618ZM227.131 194.183L216.43 208.487H210.387L209.684 203.697H214.101L220.517 194.183H227.131ZM220.934 217.957L213.771 207.586L217.946 204.576L227.9 217.957H220.934ZM246.752 194.183V198.401H235.151V194.183H246.752ZM250.905 194.183V217.957H245.61V194.183H250.905ZM233.854 194.183H239.084L238.447 205.938C238.359 207.681 238.183 209.219 237.919 210.552C237.67 211.871 237.333 213.006 236.908 213.958C236.484 214.896 235.964 215.657 235.348 216.243C234.733 216.829 234.015 217.261 233.195 217.54C232.375 217.818 231.452 217.957 230.427 217.957H228.779L228.757 213.607L229.592 213.541C230.134 213.497 230.602 213.358 230.998 213.123C231.393 212.874 231.73 212.523 232.009 212.068C232.302 211.614 232.536 211.028 232.712 210.311C232.902 209.593 233.049 208.743 233.151 207.762C233.268 206.78 233.356 205.638 233.415 204.334L233.854 194.183ZM267.011 218.397C265.253 218.397 263.664 218.111 262.243 217.54C260.837 216.954 259.635 216.141 258.639 215.101C257.658 214.061 256.904 212.837 256.376 211.431C255.849 210.025 255.585 208.509 255.585 206.883V206.004C255.585 204.144 255.856 202.459 256.398 200.95C256.94 199.441 257.695 198.152 258.661 197.083C259.628 195.999 260.771 195.171 262.089 194.6C263.407 194.029 264.836 193.743 266.374 193.743C268.073 193.743 269.56 194.029 270.834 194.6C272.109 195.171 273.163 195.977 273.998 197.017C274.848 198.043 275.478 199.266 275.888 200.687C276.313 202.108 276.525 203.675 276.525 205.389V207.652H258.156V203.851H271.296V203.433C271.266 202.481 271.076 201.587 270.724 200.753C270.387 199.918 269.867 199.244 269.164 198.731C268.461 198.218 267.524 197.962 266.352 197.962C265.473 197.962 264.689 198.152 264.001 198.533C263.327 198.9 262.763 199.434 262.309 200.137C261.855 200.84 261.503 201.69 261.254 202.686C261.02 203.668 260.903 204.774 260.903 206.004V206.883C260.903 207.923 261.042 208.89 261.32 209.783C261.613 210.662 262.038 211.431 262.594 212.09C263.151 212.75 263.825 213.27 264.616 213.65C265.407 214.017 266.308 214.2 267.319 214.2C268.593 214.2 269.728 213.943 270.724 213.431C271.72 212.918 272.585 212.193 273.317 211.255L276.108 213.958C275.595 214.705 274.928 215.423 274.108 216.111C273.288 216.785 272.284 217.335 271.098 217.759C269.926 218.184 268.564 218.397 267.011 218.397ZM291.423 194.183V217.957H286.105V194.183H291.423ZM299.223 194.183V198.358H278.437V194.183H299.223Z" fill="#F8F8F8"/>
</g>
</svg>
