<svg width="280" height="280" viewBox="0 0 280 280" fill="none" xmlns="http://www.w3.org/2000/svg">
<mask id="mask0_116_58" style="mask-type:alpha" maskUnits="userSpaceOnUse" x="2" y="0" width="276" height="280">
<path d="M211.019 56.7097C237.452 80.1069 267.211 102.951 275.344 133.902C283.292 164.668 269.799 203.541 243.367 233.754C216.934 263.784 177.933 285.154 145.771 278.338C113.423 271.706 88.1001 236.702 62.2223 206.673C36.3445 176.459 9.91226 151.219 3.99734 119.9C-1.91758 88.5815 12.3152 51.1829 38.193 27.9699C64.0707 4.57279 101.593 -4.82292 131.723 2.36203C161.852 9.54698 184.772 33.4968 211.019 56.7097Z" fill="#555555"/>
</mask>
<g mask="url(#mask0_116_58)">
<rect width="339" height="339" fill="#555555"/>
<path d="M29.4932 97.5078H34.415L43.6655 122.183L52.894 97.5078H57.8159L45.5991 129.5H41.688L29.4932 97.5078ZM27.252 97.5078H31.9321L32.7451 118.865V129.5H27.252V97.5078ZM55.377 97.5078H60.0791V129.5H54.564V118.865L55.377 97.5078ZM76.5806 129.939C74.8228 129.939 73.2334 129.654 71.8125 129.083C70.4062 128.497 69.2051 127.684 68.209 126.644C67.2275 125.604 66.4731 124.38 65.9458 122.974C65.4185 121.568 65.1548 120.052 65.1548 118.426V117.547C65.1548 115.687 65.4258 114.002 65.9678 112.493C66.5098 110.984 67.2642 109.695 68.231 108.626C69.1978 107.542 70.3403 106.714 71.6587 106.143C72.9771 105.572 74.4053 105.286 75.9434 105.286C77.6426 105.286 79.1294 105.572 80.4038 106.143C81.6782 106.714 82.7329 107.52 83.5679 108.56C84.4175 109.585 85.0474 110.809 85.4575 112.229C85.8823 113.65 86.0947 115.218 86.0947 116.932V119.195H67.7256V115.394H80.8652V114.976C80.8359 114.024 80.6455 113.13 80.2939 112.295C79.957 111.46 79.437 110.787 78.7339 110.274C78.0308 109.761 77.0933 109.505 75.9214 109.505C75.0425 109.505 74.2588 109.695 73.5703 110.076C72.8965 110.442 72.3325 110.977 71.8784 111.68C71.4243 112.383 71.0728 113.233 70.8237 114.229C70.5894 115.21 70.4722 116.316 70.4722 117.547V118.426C70.4722 119.466 70.6113 120.433 70.8896 121.326C71.1826 122.205 71.6074 122.974 72.1641 123.633C72.7207 124.292 73.3945 124.812 74.1855 125.193C74.9766 125.56 75.8774 125.743 76.8882 125.743C78.1626 125.743 79.2979 125.486 80.2939 124.974C81.29 124.461 82.1543 123.736 82.8867 122.798L85.6772 125.501C85.1646 126.248 84.498 126.966 83.6777 127.654C82.8574 128.328 81.854 128.877 80.6675 129.302C79.4956 129.727 78.1333 129.939 76.5806 129.939ZM94.5322 105.726H99.8276L99.564 114.097C99.4907 116.529 99.2124 118.616 98.729 120.359C98.2456 122.103 97.6157 123.575 96.8394 124.776C96.063 125.962 95.1841 126.937 94.2026 127.698C93.2358 128.46 92.2178 129.061 91.1484 129.5H89.5884V125.325L90.3354 125.281C90.9653 124.607 91.5073 123.934 91.9614 123.26C92.4302 122.571 92.8257 121.817 93.1479 120.997C93.4702 120.162 93.7192 119.188 93.895 118.074C94.0854 116.961 94.21 115.635 94.2686 114.097L94.5322 105.726ZM95.9385 105.726H111.012V129.5H105.738V110.208H95.9385V105.726ZM88.3799 125.281H114.264V136.575H108.968V129.5H93.7412V136.575H88.3579L88.3799 125.281Z" fill="#F8F8F8"/>
<path d="M147.533 155.508V159.902H132.657V187.5H127.164V155.508H147.533ZM130.987 167.791H139.029C141.461 167.791 143.541 168.201 145.27 169.021C146.998 169.827 148.316 170.962 149.225 172.427C150.133 173.892 150.587 175.598 150.587 177.546C150.587 179.011 150.331 180.352 149.818 181.567C149.305 182.783 148.551 183.838 147.555 184.731C146.559 185.61 145.343 186.292 143.907 186.775C142.486 187.258 140.86 187.5 139.029 187.5H127.164V155.508H132.701V183.127H139.029C140.421 183.127 141.563 182.871 142.457 182.358C143.351 181.831 144.01 181.143 144.435 180.293C144.874 179.443 145.094 178.513 145.094 177.502C145.094 176.521 144.874 175.627 144.435 174.822C144.01 174.016 143.351 173.372 142.457 172.888C141.563 172.405 140.421 172.163 139.029 172.163H130.987V167.791ZM161.925 184.907L168.385 163.726H174.054L164.518 191.125C164.298 191.711 164.012 192.349 163.661 193.037C163.309 193.726 162.848 194.377 162.276 194.993C161.72 195.623 161.024 196.128 160.189 196.509C159.354 196.904 158.343 197.102 157.157 197.102C156.688 197.102 156.234 197.058 155.794 196.97C155.37 196.897 154.967 196.816 154.586 196.729L154.564 192.686C154.71 192.7 154.886 192.715 155.091 192.729C155.311 192.744 155.487 192.751 155.619 192.751C156.498 192.751 157.23 192.642 157.816 192.422C158.402 192.217 158.878 191.88 159.244 191.411C159.625 190.942 159.947 190.312 160.211 189.521L161.925 184.907ZM158.277 163.726L163.924 181.523L164.869 187.104L161.2 188.049L152.564 163.726H158.277ZM182.799 163.726V187.5H177.503V163.726H182.799ZM198.312 163.726L187.611 178.03H181.568L180.865 173.24H185.282L191.698 163.726H198.312ZM192.115 187.5L184.952 177.129L189.127 174.119L199.081 187.5H192.115ZM217.933 163.726V167.944H206.332V163.726H217.933ZM222.086 163.726V187.5H216.791V163.726H222.086ZM205.035 163.726H210.265L209.627 175.481C209.54 177.224 209.364 178.762 209.1 180.095C208.851 181.414 208.514 182.549 208.089 183.501C207.665 184.438 207.145 185.2 206.529 185.786C205.914 186.372 205.196 186.804 204.376 187.083C203.556 187.361 202.633 187.5 201.607 187.5H199.959L199.938 183.149L200.772 183.083C201.314 183.04 201.783 182.9 202.179 182.666C202.574 182.417 202.911 182.065 203.189 181.611C203.482 181.157 203.717 180.571 203.893 179.854C204.083 179.136 204.229 178.286 204.332 177.305C204.449 176.323 204.537 175.181 204.596 173.877L205.035 163.726ZM238.192 187.939C236.434 187.939 234.845 187.654 233.424 187.083C232.018 186.497 230.816 185.684 229.82 184.644C228.839 183.604 228.084 182.38 227.557 180.974C227.03 179.568 226.766 178.052 226.766 176.426V175.547C226.766 173.687 227.037 172.002 227.579 170.493C228.121 168.984 228.875 167.695 229.842 166.626C230.809 165.542 231.952 164.714 233.27 164.143C234.588 163.572 236.017 163.286 237.555 163.286C239.254 163.286 240.741 163.572 242.015 164.143C243.29 164.714 244.344 165.52 245.179 166.56C246.029 167.585 246.659 168.809 247.069 170.229C247.494 171.65 247.706 173.218 247.706 174.932V177.195H229.337V173.394H242.477V172.976C242.447 172.024 242.257 171.13 241.905 170.295C241.568 169.46 241.048 168.787 240.345 168.274C239.642 167.761 238.705 167.505 237.533 167.505C236.654 167.505 235.87 167.695 235.182 168.076C234.508 168.442 233.944 168.977 233.49 169.68C233.036 170.383 232.684 171.233 232.435 172.229C232.201 173.21 232.083 174.316 232.083 175.547V176.426C232.083 177.466 232.223 178.433 232.501 179.326C232.794 180.205 233.219 180.974 233.775 181.633C234.332 182.292 235.006 182.812 235.797 183.193C236.588 183.56 237.489 183.743 238.5 183.743C239.774 183.743 240.909 183.486 241.905 182.974C242.901 182.461 243.766 181.736 244.498 180.798L247.289 183.501C246.776 184.248 246.109 184.966 245.289 185.654C244.469 186.328 243.465 186.877 242.279 187.302C241.107 187.727 239.745 187.939 238.192 187.939ZM262.604 163.726V187.5H257.286V163.726H262.604ZM270.404 163.726V167.9H249.618V163.726H270.404Z" fill="#F8F8F8"/>
</g>
</svg>
