<svg width="645" height="645" viewBox="0 0 645 645" fill="none" xmlns="http://www.w3.org/2000/svg">
<mask id="mask0_111_5" style="mask-type:alpha" maskUnits="userSpaceOnUse" x="6" y="0" width="634" height="645">
<path d="M486.098 130.635C546.987 184.532 615.54 237.156 634.275 308.453C652.584 379.325 621.501 468.87 560.612 538.47C499.724 607.645 409.881 656.873 335.793 641.171C261.278 625.893 202.945 545.26 143.333 476.085C83.722 406.486 22.8334 348.345 9.20797 276.199C-4.41746 204.054 28.3687 117.903 87.98 64.4307C147.591 10.5337 234.028 -11.1099 303.432 5.4411C372.837 21.9922 425.635 77.1623 486.098 130.635Z" fill="#555555"/>
</mask>
<g mask="url(#mask0_111_5)">
<rect width="653" height="653" fill="#555555"/>
<path d="M66.272 220.706H76.1158L94.6168 270.057L113.074 220.706H122.918L98.484 284.69H90.6617L66.272 220.706ZM61.7896 220.706H71.15L72.776 263.421V284.69H61.7896V220.706ZM118.04 220.706H127.444V284.69H116.414V263.421L118.04 220.706ZM160.447 285.569C156.931 285.569 153.753 284.998 150.911 283.856C148.098 282.684 145.696 281.058 143.704 278.978C141.741 276.898 140.232 274.451 139.177 271.639C138.123 268.826 137.595 265.794 137.595 262.542V260.784C137.595 257.064 138.137 253.694 139.221 250.677C140.305 247.659 141.814 245.081 143.748 242.942C145.681 240.774 147.966 239.119 150.603 237.977C153.24 236.834 156.096 236.263 159.172 236.263C162.571 236.263 165.545 236.834 168.093 237.977C170.642 239.119 172.752 240.731 174.421 242.811C176.121 244.861 177.38 247.308 178.201 250.149C179.05 252.991 179.475 256.126 179.475 259.554V264.08H142.737V256.478H169.016V255.643C168.958 253.738 168.577 251.951 167.874 250.281C167.2 248.611 166.16 247.264 164.753 246.238C163.347 245.213 161.472 244.7 159.128 244.7C157.371 244.7 155.803 245.081 154.426 245.843C153.079 246.575 151.951 247.645 151.043 249.051C150.134 250.457 149.431 252.156 148.933 254.148C148.464 256.111 148.23 258.323 148.23 260.784V262.542C148.23 264.622 148.508 266.556 149.065 268.343C149.651 270.101 150.501 271.639 151.614 272.957C152.727 274.275 154.075 275.315 155.657 276.077C157.239 276.81 159.041 277.176 161.062 277.176C163.611 277.176 165.881 276.663 167.874 275.638C169.866 274.612 171.594 273.162 173.059 271.287L178.64 276.692C177.615 278.187 176.282 279.622 174.641 280.999C173.001 282.347 170.994 283.445 168.621 284.295C166.277 285.145 163.552 285.569 160.447 285.569ZM196.35 237.142H206.941L206.414 253.885C206.267 258.748 205.711 262.923 204.744 266.409C203.777 269.896 202.517 272.84 200.964 275.242C199.412 277.615 197.654 279.564 195.691 281.087C193.757 282.61 191.721 283.812 189.583 284.69H186.462V276.341L187.957 276.253C189.216 274.905 190.3 273.558 191.209 272.21C192.146 270.833 192.937 269.324 193.582 267.684C194.226 266.014 194.724 264.065 195.076 261.839C195.457 259.612 195.706 256.961 195.823 253.885L196.35 237.142ZM199.163 237.142H229.309V284.69H218.762V246.107H199.163V237.142ZM184.045 276.253H235.813V298.841H225.222V284.69H194.768V298.841H184.002L184.045 276.253Z" fill="#F8F8F8"/>
<path d="M337.827 353.801V362.59H308.076V417.786H297.09V353.801H337.827ZM304.737 378.367H320.82C325.684 378.367 329.844 379.187 333.301 380.828C336.758 382.439 339.395 384.71 341.211 387.639C343.028 390.569 343.936 393.982 343.936 397.878C343.936 400.808 343.423 403.489 342.398 405.92C341.372 408.352 339.863 410.461 337.871 412.249C335.879 414.006 333.447 415.369 330.576 416.336C327.735 417.302 324.483 417.786 320.82 417.786H297.09V353.801H308.164V409.041H320.82C323.604 409.041 325.889 408.528 327.676 407.503C329.463 406.448 330.781 405.071 331.631 403.372C332.51 401.672 332.949 399.812 332.949 397.791C332.949 395.828 332.51 394.041 331.631 392.429C330.781 390.818 329.463 389.529 327.676 388.562C325.889 387.595 323.604 387.112 320.82 387.112H304.737V378.367ZM366.612 412.6L379.531 370.237H390.869L371.797 425.037C371.358 426.209 370.786 427.483 370.083 428.86C369.38 430.237 368.457 431.541 367.315 432.771C366.201 434.031 364.81 435.042 363.14 435.803C361.47 436.594 359.448 436.99 357.075 436.99C356.138 436.99 355.23 436.902 354.351 436.726C353.501 436.58 352.695 436.419 351.934 436.243L351.89 428.157C352.183 428.186 352.534 428.215 352.945 428.245C353.384 428.274 353.736 428.289 353.999 428.289C355.757 428.289 357.222 428.069 358.394 427.629C359.566 427.219 360.518 426.545 361.25 425.608C362.012 424.67 362.656 423.411 363.184 421.829L366.612 412.6ZM359.317 370.237L370.611 405.833L372.5 416.995L365.161 418.884L347.891 370.237H359.317ZM408.36 370.237V417.786H397.769V370.237H408.36ZM439.385 370.237L417.984 398.845H405.899L404.492 389.265H413.325L426.157 370.237H439.385ZM426.992 417.786L412.666 397.044L421.016 391.023L440.923 417.786H426.992ZM478.628 370.237V378.674H455.425V370.237H478.628ZM486.934 370.237V417.786H476.343V370.237H486.934ZM452.832 370.237H463.291L462.017 393.748C461.841 397.234 461.489 400.31 460.962 402.976C460.464 405.613 459.79 407.883 458.941 409.788C458.091 411.663 457.051 413.186 455.82 414.358C454.59 415.53 453.154 416.394 451.514 416.951C449.873 417.507 448.028 417.786 445.977 417.786H442.681L442.637 409.085L444.307 408.953C445.391 408.865 446.328 408.586 447.119 408.118C447.91 407.62 448.584 406.917 449.141 406.008C449.727 405.1 450.195 403.928 450.547 402.493C450.928 401.057 451.221 399.358 451.426 397.395C451.66 395.432 451.836 393.147 451.953 390.54L452.832 370.237ZM519.146 418.665C515.63 418.665 512.451 418.093 509.61 416.951C506.797 415.779 504.395 414.153 502.403 412.073C500.44 409.993 498.931 407.546 497.876 404.734C496.821 401.921 496.294 398.889 496.294 395.637V393.879C496.294 390.159 496.836 386.79 497.92 383.772C499.004 380.754 500.513 378.176 502.446 376.038C504.38 373.87 506.665 372.214 509.302 371.072C511.939 369.929 514.795 369.358 517.871 369.358C521.27 369.358 524.243 369.929 526.792 371.072C529.341 372.214 531.45 373.826 533.12 375.906C534.82 377.957 536.079 380.403 536.9 383.245C537.749 386.086 538.174 389.221 538.174 392.649V397.175H501.436V389.573H527.715V388.738C527.656 386.834 527.276 385.046 526.572 383.377C525.899 381.707 524.859 380.359 523.452 379.334C522.046 378.308 520.171 377.795 517.827 377.795C516.07 377.795 514.502 378.176 513.125 378.938C511.778 379.67 510.65 380.74 509.741 382.146C508.833 383.552 508.13 385.252 507.632 387.244C507.163 389.207 506.929 391.419 506.929 393.879V395.637C506.929 397.717 507.207 399.651 507.764 401.438C508.35 403.196 509.199 404.734 510.313 406.052C511.426 407.371 512.774 408.411 514.356 409.172C515.938 409.905 517.739 410.271 519.761 410.271C522.31 410.271 524.58 409.758 526.572 408.733C528.565 407.708 530.293 406.257 531.758 404.382L537.339 409.788C536.314 411.282 534.981 412.717 533.34 414.094C531.699 415.442 529.693 416.541 527.32 417.39C524.976 418.24 522.251 418.665 519.146 418.665ZM567.969 370.237V417.786H557.334V370.237H567.969ZM583.57 370.237V378.586H541.997V370.237H583.57Z" fill="#F8F8F8"/>
</g>
</svg>
